<?xml version="1.0" encoding="utf-8"?>
<svg width="240" height="44.736914560795746" viewBox="0 0 240 44.736914560795746" class="css-1j8o68f" xmlns="http://www.w3.org/2000/svg">
  <g id="SvgjsG2810" featurekey="aMgJeN-0" transform="matrix(0.6222101371946009,0,0,0.6222101371946009,-6.284322623019801,-8.213173692291567)" fill="#213058">
    <path xmlns="http://www.w3.org/2000/svg" d="M39.9,48.3c-1.9,0-3.4,1.5-3.4,3.4v3.2c0,0.6,0.4,1,1,1h4.8c0.6,0,1-0.4,1-1v-3.2C43.3,49.8,41.8,48.3,39.9,48.3z   M41.3,53.9h-2.8v-2.2c0-0.8,0.6-1.4,1.4-1.4s1.4,0.6,1.4,1.4V53.9z"/>
    <path xmlns="http://www.w3.org/2000/svg" d="M47.5,55.9h4.8c0.6,0,1-0.4,1-1v-3.2c0-1.9-1.5-3.4-3.4-3.4s-3.4,1.5-3.4,3.4v3.2C46.5,55.4,46.9,55.9,47.5,55.9z   M48.5,51.7c0-0.8,0.6-1.4,1.4-1.4s1.4,0.6,1.4,1.4v2.2h-2.8V51.7z"/>
    <path xmlns="http://www.w3.org/2000/svg" d="M39.9,59.5c-1.9,0-3.4,1.5-3.4,3.4v3.2c0,0.6,0.4,1,1,1h4.8c0.6,0,1-0.4,1-1v-3.2C43.3,61.1,41.8,59.5,39.9,59.5z   M41.3,65.1h-2.8v-2.2c0-0.8,0.6-1.4,1.4-1.4s1.4,0.6,1.4,1.4V65.1z"/>
    <path xmlns="http://www.w3.org/2000/svg" d="M47.5,67.1h4.8c0.6,0,1-0.4,1-1v-3.2c0-1.9-1.5-3.4-3.4-3.4s-3.4,1.5-3.4,3.4v3.2C46.5,66.7,46.9,67.1,47.5,67.1z   M48.5,62.9c0-0.8,0.6-1.4,1.4-1.4s1.4,0.6,1.4,1.4v2.2h-2.8V62.9z"/>
    <path xmlns="http://www.w3.org/2000/svg" d="M59.7,48.3c-1.9,0-3.4,1.5-3.4,3.4v3.2c0,0.6,0.4,1,1,1h4.8c0.6,0,1-0.4,1-1v-3.2C63.1,49.8,61.5,48.3,59.7,48.3z   M61.1,53.9h-2.8v-2.2c0-0.8,0.6-1.4,1.4-1.4s1.4,0.6,1.4,1.4V53.9z"/>
    <path xmlns="http://www.w3.org/2000/svg" d="M39.9,37.1c-1.9,0-3.4,1.5-3.4,3.4v3.2c0,0.6,0.4,1,1,1h4.8c0.6,0,1-0.4,1-1v-3.2C43.3,38.6,41.8,37.1,39.9,37.1z   M41.3,42.7h-2.8v-2.2c0-0.8,0.6-1.4,1.4-1.4s1.4,0.6,1.4,1.4V42.7z"/>
    <path xmlns="http://www.w3.org/2000/svg" d="M47.5,44.7h4.8c0.6,0,1-0.4,1-1v-3.2c0-1.9-1.5-3.4-3.4-3.4s-3.4,1.5-3.4,3.4v3.2C46.5,44.2,46.9,44.7,47.5,44.7z   M48.5,40.5c0-0.8,0.6-1.4,1.4-1.4s1.4,0.6,1.4,1.4v2.2h-2.8V40.5z"/>
    <path xmlns="http://www.w3.org/2000/svg" d="M39.9,26.1c-1.9,0-3.4,1.5-3.4,3.4v3.2c0,0.6,0.4,1,1,1h4.8c0.6,0,1-0.4,1-1v-3.2C43.3,27.7,41.8,26.1,39.9,26.1z   M41.3,31.7h-2.8v-2.2c0-0.8,0.6-1.4,1.4-1.4s1.4,0.6,1.4,1.4V31.7z"/>
    <path xmlns="http://www.w3.org/2000/svg" d="M47.5,33.7h4.8c0.6,0,1-0.4,1-1v-3.2c0-1.9-1.5-3.4-3.4-3.4s-3.4,1.5-3.4,3.4v3.2C46.5,33.3,46.9,33.7,47.5,33.7z   M48.5,29.5c0-0.8,0.6-1.4,1.4-1.4s1.4,0.6,1.4,1.4v2.2h-2.8V29.5z"/>
    <path xmlns="http://www.w3.org/2000/svg" d="M57.2,33.7h4.8c0.6,0,1-0.4,1-1v-3.2c0-1.9-1.5-3.4-3.4-3.4s-3.4,1.5-3.4,3.4v3.2C56.2,33.3,56.7,33.7,57.2,33.7z   M58.2,29.5c0-0.8,0.6-1.4,1.4-1.4c0.8,0,1.4,0.6,1.4,1.4v2.2h-2.8V29.5z"/>
    <path xmlns="http://www.w3.org/2000/svg" d="M59.7,37.1c-1.9,0-3.4,1.5-3.4,3.4v3.2c0,0.6,0.4,1,1,1h4.8c0.6,0,1-0.4,1-1v-3.2C63.1,38.6,61.5,37.1,59.7,37.1z   M61.1,42.7h-2.8v-2.2c0-0.8,0.6-1.4,1.4-1.4s1.4,0.6,1.4,1.4V42.7z"/>
    <path xmlns="http://www.w3.org/2000/svg" d="M59.7,59.5c-1.9,0-3.4,1.5-3.4,3.4v3.2c0,0.6,0.4,1,1,1h4.8c0.6,0,1-0.4,1-1v-3.2C63.1,61.1,61.5,59.5,59.7,59.5z   M61.1,65.1h-2.8v-2.2c0-0.8,0.6-1.4,1.4-1.4s1.4,0.6,1.4,1.4V65.1z"/>
    <path xmlns="http://www.w3.org/2000/svg" d="M87,60.3c-0.6,0-1.1,0.1-1.6,0.4c0.5-1.7,2-2.9,3.9-2.9c0.6,0,1-0.4,1-1s-0.4-1-1-1c-1.6,0-3,0.6-4,1.6V55c0-0.6-0.4-1-1-1  s-1,0.4-1,1v2.3c-1.1-1-2.5-1.6-4-1.6c-0.6,0-1,0.4-1,1s0.4,1,1,1c1.8,0,3.4,1.2,3.9,2.9c-0.5-0.2-1-0.4-1.6-0.4  c-2.1,0-3.7,1.7-3.7,3.7c0,0.6,0.4,1,1,1s1-0.4,1-1c0-1,0.8-1.7,1.7-1.7s1.7,0.8,1.7,1.7v19.2h-5.5v-8.6c0-0.7,0.5-1.2,1.2-1.2  s1.2,0.5,1.2,1.2c0,0.6,0.4,1,1,1s1-0.4,1-1c0-1.8-1.4-3.2-3.2-3.2c-0.3,0-0.7,0.1-1,0.2c0.5-1.1,1.6-1.8,2.8-1.8c0.6,0,1-0.4,1-1  s-0.4-1-1-1c-1.2,0-2.2,0.4-3.1,1.1v-1.5c0-0.6-0.4-1-1-1s-1,0.4-1,1v1.5c-0.9-0.7-1.9-1.1-3.1-1.1c-0.6,0-1,0.4-1,1s0.4,1,1,1  c1.3,0,2.3,0.8,2.8,1.8c-0.3-0.1-0.6-0.2-1-0.2c-1.8,0-3.2,1.4-3.2,3.2c0,0.6,0.4,1,1,1s1-0.4,1-1c0-0.7,0.5-1.2,1.2-1.2  s1.2,0.5,1.2,1.2v8.6h-6.5V14.2c0-0.6-0.4-1-1-1H32.4c-0.6,0-1,0.4-1,1v69.1h-7.2V64.1c0-1,0.8-1.7,1.7-1.7s1.7,0.8,1.7,1.7  c0,0.6,0.4,1,1,1s1-0.4,1-1c0-2.1-1.7-3.7-3.7-3.7c-0.6,0-1.1,0.1-1.6,0.4c0.5-1.7,2-2.9,3.9-2.9c0.6,0,1-0.4,1-1s-0.4-1-1-1  c-1.6,0-3,0.6-4,1.6V55c0-0.6-0.4-1-1-1s-1,0.4-1,1v2.3c-1.1-1-2.5-1.6-4-1.6c-0.6,0-1,0.4-1,1s0.4,1,1,1c1.8,0,3.4,1.2,3.9,2.9  c-0.5-0.2-1-0.4-1.6-0.4c-2.1,0-3.7,1.7-3.7,3.7c0,0.6,0.4,1,1,1s1-0.4,1-1c0-1,0.8-1.7,1.7-1.7s1.7,0.8,1.7,1.7v19.2h-5.5v-8.6  c0-0.7,0.5-1.2,1.2-1.2s1.2,0.5,1.2,1.2c0,0.6,0.4,1,1,1s1-0.4,1-1c0-1.8-1.4-3.2-3.2-3.2c-0.3,0-0.7,0.1-1,0.2  c0.5-1.1,1.6-1.8,2.8-1.8c0.6,0,1-0.4,1-1s-0.4-1-1-1c-1.2,0-2.2,0.4-3.1,1.1v-1.5c0-0.6-0.4-1-1-1s-1,0.4-1,1v1.5  c-0.9-0.7-1.9-1.1-3.1-1.1c-0.6,0-1,0.4-1,1s0.4,1,1,1c1.3,0,2.3,0.8,2.8,1.8c-0.3-0.1-0.6-0.2-1-0.2c-1.8,0-3.2,1.4-3.2,3.2  c0,0.6,0.4,1,1,1s1-0.4,1-1c0-0.7,0.5-1.2,1.2-1.2s1.2,0.5,1.2,1.2v8.6h-3c-0.6,0-1,0.4-1,1s0.4,1,1,1h77.3c0.6,0,1-0.4,1-1  s-0.4-1-1-1h-3.8V64.1c0-1,0.8-1.7,1.7-1.7s1.7,0.8,1.7,1.7c0,0.6,0.4,1,1,1s1-0.4,1-1C90.8,62,89.1,60.3,87,60.3z M67.4,15.2v3.5  H33.4v-3.5H67.4z M33.4,20.7h33.9v62.6H54.8v-6c0-2.8-2.2-5.1-4.9-5.1s-4.9,2.3-4.9,5.1v6H33.4V20.7z M52.8,83.2h-5.9v-6  c0-1.7,1.3-3.1,2.9-3.1s2.9,1.4,2.9,3.1V83.2z"/>
  </g>
  <g id="SvgjsG2811" featurekey="8L6ael-0" transform="matrix(0.6604813725628523,0,0,0.6604813725628523,69.81506521489504,15.23918829100848)" fill="#213058">
    <path d="M3.04 5 q0.3 0 0.51 0.21 t0.21 0.51 l0 1.46 q0 0.3 -0.21 0.51 t-0.51 0.21 l-2.06 0 q-0.28 0 -0.49 -0.21 t-0.21 -0.51 l0 -1.46 q0 -0.3 0.21 -0.51 t0.49 -0.21 l2.06 0 z M11.98 5 q0.28 0 0.49 0.21 t0.21 0.51 l0 1.46 q0 0.3 -0.21 0.51 t-0.49 0.21 l-4.02 0 l0 11.36 q0 0.28 -0.21 0.49 t-0.49 0.21 l-1.54 0 q-0.3 0 -0.51 -0.21 t-0.21 -0.49 l0 -13.54 q0 -0.3 0.21 -0.51 t0.51 -0.21 l6.26 0 z M26.916 16.96 q0.3 0 0.5 0.21 t0.2 0.51 l0 1.46 q0 0.28 -0.2 0.49 t-0.5 0.21 l-9.88 0 q-0.28 0 -0.49 -0.21 t-0.21 -0.49 l0 -1.46 q0 -0.3 0.21 -0.51 t0.49 -0.21 l9.88 0 z M17.036 13.86 q-0.28 0 -0.49 -0.21 t-0.21 -0.49 l0 -1.5 q0 -0.28 0.21 -0.49 t0.49 -0.21 l8.98 0 q0.3 0 0.51 0.21 t0.21 0.49 l0 1.5 q0 0.28 -0.21 0.49 t-0.51 0.21 l-8.98 0 z M26.916 5 q0.3 0 0.5 0.21 t0.2 0.49 l0 1.46 q0 0.3 -0.2 0.51 t-0.5 0.21 l-9.88 0 q-0.28 0 -0.49 -0.21 t-0.21 -0.51 l0 -1.46 q0 -0.28 0.21 -0.49 t0.49 -0.21 l9.88 0 z M45.532000000000004 5 q0.28 0 0.49 0.21 t0.21 0.49 l0 13.4 q0 0.28 -0.21 0.49 t-0.49 0.21 l-1.52 0 q-0.3 0 -0.5 -0.21 t-0.2 -0.49 l0 -9.04 l-3.7 4.76 q-0.22 0.26 -0.56 0.26 l0 0 q-0.16 0 -0.32 -0.07 t-0.24 -0.21 l-6.56 -8.68 q-0.12 -0.14 -0.14 -0.35 t0.08 -0.38 t0.26 -0.28 t0.36 -0.11 l1.76 0 q0.34 0 0.56 0.28 l4.24 5.6 l4.14 -5.6 q0.22 -0.28 0.58 -0.28 l1.76 0 z M34.012 14.7 q0.28 0 0.49 0.2 t0.21 0.5 l0 3.7 q0 0.28 -0.21 0.49 t-0.49 0.21 l-1.52 0 q-0.28 0 -0.49 -0.21 t-0.21 -0.49 l0 -3.7 q0 -0.3 0.21 -0.5 t0.49 -0.2 l1.52 0 z M57.968 5 q2.38 0 3.84 1.37 t1.46 3.65 t-1.44 3.64 t-3.86 1.36 l-3.82 0 l0 4.08 q0 0.28 -0.21 0.49 t-0.49 0.21 l-1.52 0 q-0.28 0 -0.49 -0.21 t-0.21 -0.49 l0 -6.2 q0 -0.28 0.21 -0.49 t0.49 -0.21 l5.92 0 q1.34 0 1.92 -0.58 q0.58 -0.52 0.58 -1.58 t-0.6 -1.63 t-1.9 -0.57 l-5.92 0 q-0.28 0 -0.49 -0.21 t-0.21 -0.49 l0 -1.44 q0 -0.28 0.21 -0.49 t0.49 -0.21 l6.04 0 z M69.284 5 q0.28 0 0.49 0.21 t0.21 0.49 l0 13.4 q0 0.28 -0.21 0.49 t-0.49 0.21 l-1.52 0 q-0.28 0 -0.49 -0.21 t-0.21 -0.49 l0 -13.4 q0 -0.28 0.21 -0.49 t0.49 -0.21 l1.52 0 z M76.584 16.94 q0.3 0 0.5 0.21 t0.2 0.49 l0 1.46 q0 0.28 -0.2 0.49 t-0.5 0.21 l-4.66 0 q-0.3 0 -0.5 -0.21 t-0.2 -0.49 l0 -1.46 q0 -0.28 0.2 -0.49 t0.5 -0.21 l4.66 0 z M91.56 16.96 q0.3 0 0.5 0.21 t0.2 0.51 l0 1.46 q0 0.28 -0.2 0.49 t-0.5 0.21 l-9.88 0 q-0.28 0 -0.49 -0.21 t-0.21 -0.49 l0 -1.46 q0 -0.3 0.21 -0.51 t0.49 -0.21 l9.88 0 z M81.67999999999999 13.86 q-0.28 0 -0.49 -0.21 t-0.21 -0.49 l0 -1.5 q0 -0.28 0.21 -0.49 t0.49 -0.21 l8.98 0 q0.3 0 0.51 0.21 t0.21 0.49 l0 1.5 q0 0.28 -0.21 0.49 t-0.51 0.21 l-8.98 0 z M91.56 5 q0.3 0 0.5 0.21 t0.2 0.49 l0 1.46 q0 0.3 -0.2 0.51 t-0.5 0.21 l-9.88 0 q-0.28 0 -0.49 -0.21 t-0.21 -0.51 l0 -1.46 q0 -0.28 0.21 -0.49 t0.49 -0.21 l9.88 0 z M104.61200000000001 10.94 q0.3 0 0.5 0.21 t0.2 0.51 l0 7.48 q0 0.28 -0.2 0.49 t-0.5 0.21 l-1.52 0 q-0.28 0 -0.49 -0.21 t-0.21 -0.49 l0 -7.48 q0 -0.3 0.21 -0.51 t0.49 -0.21 l1.52 0 z M104.61200000000001 5 q0.3 0 0.5 0.21 t0.2 0.49 l0 3.7 q0 0.3 -0.2 0.51 t-0.5 0.21 l-1.52 0 q-0.28 0 -0.49 -0.21 t-0.21 -0.51 l0 -3.7 q0 -0.28 0.21 -0.49 t0.49 -0.21 l1.52 0 z M122.568 5 q0.28 0 0.49 0.21 t0.21 0.49 l0 13.4 q0 0.28 -0.21 0.49 t-0.49 0.21 l-1.76 0 q-0.36 0 -0.58 -0.28 l-9.78 -13.4 q-0.12 -0.16 -0.14 -0.36 t0.07 -0.38 t0.26 -0.28 t0.37 -0.1 l1.76 0 q0.16 0 0.32 0.07 t0.24 0.21 l7.02 9.54 l0 -9.12 q0 -0.28 0.2 -0.49 t0.5 -0.21 l1.52 0 z M112.528 14.7 q0.28 0 0.49 0.2 t0.21 0.5 l0 3.7 q0 0.28 -0.21 0.49 t-0.49 0.21 l-1.52 0 q-0.28 0 -0.49 -0.21 t-0.21 -0.49 l0 -3.7 q0 -0.3 0.21 -0.5 t0.49 -0.2 l1.52 0 z M140.524 5 q0.28 0 0.49 0.21 t0.21 0.49 l0 13.4 q0 0.28 -0.21 0.49 t-0.49 0.21 l-1.76 0 q-0.36 0 -0.58 -0.28 l-9.78 -13.4 q-0.12 -0.16 -0.14 -0.36 t0.07 -0.38 t0.26 -0.28 t0.37 -0.1 l1.76 0 q0.16 0 0.32 0.07 t0.24 0.21 l7.02 9.54 l0 -9.12 q0 -0.28 0.2 -0.49 t0.5 -0.21 l1.52 0 z M130.484 14.7 q0.28 0 0.49 0.2 t0.21 0.5 l0 3.7 q0 0.28 -0.21 0.49 t-0.49 0.21 l-1.52 0 q-0.28 0 -0.49 -0.21 t-0.21 -0.49 l0 -3.7 q0 -0.3 0.21 -0.5 t0.49 -0.2 l1.52 0 z M162.856 15.86 l2.02 2.08 q0.22 0.22 0.2 0.53 t-0.28 0.51 l-1.2 0.9 q-0.2 0.16 -0.42 0.16 q-0.28 0 -0.5 -0.22 l-1.7 -1.74 q-2.02 1.88 -4.54 1.88 q-1.46 0 -2.61 -0.6 t-1.81 -1.65 t-0.66 -2.37 q0 -1.2 0.58 -2.2 q0.74 -1.28 2.38 -2.12 q-0.48 -0.68 -0.72 -1.3 q-0.26 -0.72 -0.26 -1.52 q0 -1.12 0.57 -2.04 t1.57 -1.45 t2.22 -0.53 q1.16 0 2.09 0.5 t1.46 1.39 t0.53 1.97 q0 2.54 -2.76 3.9 l1.86 1.9 q0.56 -0.94 1.16 -2.28 q0.08 -0.24 0.37 -0.36 t0.55 0 l1.3 0.6 q0.24 0.12 0.36 0.4 q0.1 0.26 -0.04 0.52 q-0.9 1.92 -1.72 3.14 z M157.136 9.98 q1.06 -0.42 1.48 -0.96 q0.3 -0.38 0.3 -0.92 t-0.36 -0.89 t-0.92 -0.35 q-0.64 0 -1.03 0.37 t-0.39 0.97 q0 0.42 0.16 0.76 q0.2 0.4 0.76 1.02 z M156.136 13.08 q-0.88 0.4 -1.34 0.96 t-0.46 1.24 q0 0.88 0.62 1.42 t1.6 0.54 q1.28 0 2.5 -1.14 z M184.58799999999997 12.42 q0.86 0.54 1.31 1.32 t0.45 1.74 q0 2.26 -1.72 3.46 q-1.16 0.84 -3.14 1.06 l-0.08 0 q-0.28 0 -0.46 -0.18 q-0.24 -0.22 -0.24 -0.52 l0 -1.44 q0 -0.26 0.18 -0.46 t0.44 -0.24 q0.94 -0.1 1.46 -0.44 q0.4 -0.24 0.54 -0.62 q0.08 -0.22 0.08 -0.56 q0 -0.22 -0.08 -0.38 t-0.28 -0.3 q-0.58 -0.4 -1.5 -0.68 l-0.32 -0.1 q-1 -0.28 -1.84 -0.46 q-0.18 -0.04 -0.58 -0.14 l-0.22 -0.06 q-0.72 -0.18 -1.52 -0.5 q-1.18 -0.5 -1.94 -1.26 q-0.88 -0.88 -0.88 -2.32 q0 -1.98 1.52 -3.22 q1.04 -0.88 2.92 -1.12 q0.32 -0.04 0.55 0.18 t0.23 0.52 l0 1.44 q0 0.26 -0.16 0.46 t-0.41 0.23 t-0.51 0.11 q-0.58 0.22 -0.82 0.43 t-0.34 0.43 q-0.1 0.34 -0.1 0.64 q0 0.16 0.18 0.34 q0.28 0.28 0.82 0.5 q0.24 0.1 0.84 0.3 l2.5 0.62 l0.12 0.04 q0.94 0.26 1.36 0.4 q0.94 0.32 1.64 0.78 z M181.24799999999996 7.9 q-0.24 -0.06 -0.39 -0.25 t-0.15 -0.45 l0 -1.46 q0 -0.32 0.26 -0.54 q0.1 -0.1 0.26 -0.13 t0.3 -0.01 q1.76 0.28 2.86 1.2 q1.5 1.24 1.6 3.16 q0.02 0.28 -0.19 0.51 t-0.51 0.23 l-1.56 0 q-0.26 0 -0.46 -0.18 t-0.22 -0.44 q-0.08 -0.52 -0.34 -0.86 q-0.42 -0.5 -1.3 -0.76 q-0.06 0 -0.08 -0.02 l-0.08 0 z M178.90799999999996 17.08 q0.24 0.04 0.4 0.24 t0.16 0.44 l0 1.48 q0 0.32 -0.24 0.54 q-0.2 0.16 -0.46 0.16 l-0.1 0 q-1.86 -0.28 -3.06 -1.22 q-1.56 -1.24 -1.76 -3.46 q-0.04 -0.32 0.18 -0.55 t0.52 -0.23 l1.58 0 q0.28 0 0.48 0.19 t0.22 0.47 q0.06 1 0.98 1.54 q0.42 0.24 1.1 0.4 z M195.58399999999997 17.06 q0.24 0.08 0.38 0.27 t0.14 0.43 l0 1.54 q0 0.32 -0.26 0.54 q-0.2 0.16 -0.44 0.16 q-0.1 0 -0.14 -0.02 q-1.86 -0.36 -3.2 -1.72 q-1.8 -1.84 -1.8 -4.84 l0 -7.7 q0 -0.3 0.21 -0.51 t0.49 -0.21 l1.54 0 q0.3 0 0.51 0.21 t0.21 0.51 l0 7.74 q0 1.9 1.08 2.9 q0.56 0.52 1.28 0.7 z M202.48399999999998 5 q0.3 0 0.51 0.21 t0.21 0.51 l0 7.7 q0 3 -1.8 4.84 q-1.34 1.36 -3.2 1.72 q-0.04 0.02 -0.14 0.02 q-0.24 0 -0.44 -0.16 q-0.26 -0.2 -0.26 -0.56 l0 -1.54 q0 -0.22 0.14 -0.41 t0.38 -0.27 q0.76 -0.22 1.28 -0.7 q1.08 -0.96 1.08 -2.9 l0 -7.74 q0 -0.3 0.21 -0.51 t0.51 -0.21 l1.52 0 z M210.25999999999996 10.94 q0.3 0 0.5 0.21 t0.2 0.51 l0 7.48 q0 0.28 -0.2 0.49 t-0.5 0.21 l-1.52 0 q-0.28 0 -0.49 -0.21 t-0.21 -0.49 l0 -7.48 q0 -0.3 0.21 -0.51 t0.49 -0.21 l1.52 0 z M210.25999999999996 5 q0.3 0 0.5 0.21 t0.2 0.49 l0 3.7 q0 0.3 -0.2 0.51 t-0.5 0.21 l-1.52 0 q-0.28 0 -0.49 -0.21 t-0.21 -0.51 l0 -3.7 q0 -0.28 0.21 -0.49 t0.49 -0.21 l1.52 0 z M217.37599999999995 5 q0.3 0 0.51 0.21 t0.21 0.51 l0 1.46 q0 0.3 -0.21 0.51 t-0.51 0.21 l-2.06 0 q-0.28 0 -0.49 -0.21 t-0.21 -0.51 l0 -1.46 q0 -0.3 0.21 -0.51 t0.49 -0.21 l2.06 0 z M226.31599999999995 5 q0.28 0 0.49 0.21 t0.21 0.51 l0 1.46 q0 0.3 -0.21 0.51 t-0.49 0.21 l-4.02 0 l0 11.36 q0 0.28 -0.21 0.49 t-0.49 0.21 l-1.54 0 q-0.3 0 -0.51 -0.21 t-0.21 -0.49 l0 -13.54 q0 -0.3 0.21 -0.51 t0.51 -0.21 l6.26 0 z M241.25199999999995 16.96 q0.3 0 0.5 0.21 t0.2 0.51 l0 1.46 q0 0.28 -0.2 0.49 t-0.5 0.21 l-9.88 0 q-0.28 0 -0.49 -0.21 t-0.21 -0.49 l0 -1.46 q0 -0.3 0.21 -0.51 t0.49 -0.21 l9.88 0 z M231.37199999999996 13.86 q-0.28 0 -0.49 -0.21 t-0.21 -0.49 l0 -1.5 q0 -0.28 0.21 -0.49 t0.49 -0.21 l8.98 0 q0.3 0 0.51 0.21 t0.21 0.49 l0 1.5 q0 0.28 -0.21 0.49 t-0.51 0.21 l-8.98 0 z M241.25199999999995 5 q0.3 0 0.5 0.21 t0.2 0.49 l0 1.46 q0 0.3 -0.2 0.51 t-0.5 0.21 l-9.88 0 q-0.28 0 -0.49 -0.21 t-0.21 -0.51 l0 -1.46 q0 -0.28 0.21 -0.49 t0.49 -0.21 l9.88 0 z M255.90799999999996 12.42 q0.86 0.54 1.31 1.32 t0.45 1.74 q0 2.26 -1.72 3.46 q-1.16 0.84 -3.14 1.06 l-0.08 0 q-0.28 0 -0.46 -0.18 q-0.24 -0.22 -0.24 -0.52 l0 -1.44 q0 -0.26 0.18 -0.46 t0.44 -0.24 q0.94 -0.1 1.46 -0.44 q0.4 -0.24 0.54 -0.62 q0.08 -0.22 0.08 -0.56 q0 -0.22 -0.08 -0.38 t-0.28 -0.3 q-0.58 -0.4 -1.5 -0.68 l-0.32 -0.1 q-1 -0.28 -1.84 -0.46 q-0.18 -0.04 -0.58 -0.14 l-0.22 -0.06 q-0.72 -0.18 -1.52 -0.5 q-1.18 -0.5 -1.94 -1.26 q-0.88 -0.88 -0.88 -2.32 q0 -1.98 1.52 -3.22 q1.04 -0.88 2.92 -1.12 q0.32 -0.04 0.55 0.18 t0.23 0.52 l0 1.44 q0 0.26 -0.16 0.46 t-0.41 0.23 t-0.51 0.11 q-0.58 0.22 -0.82 0.43 t-0.34 0.43 q-0.1 0.34 -0.1 0.64 q0 0.16 0.18 0.34 q0.28 0.28 0.82 0.5 q0.24 0.1 0.84 0.3 l2.5 0.62 l0.12 0.04 q0.94 0.26 1.36 0.4 q0.94 0.32 1.64 0.78 z M252.56799999999996 7.9 q-0.24 -0.06 -0.39 -0.25 t-0.15 -0.45 l0 -1.46 q0 -0.32 0.26 -0.54 q0.1 -0.1 0.26 -0.13 t0.3 -0.01 q1.76 0.28 2.86 1.2 q1.5 1.24 1.6 3.16 q0.02 0.28 -0.19 0.51 t-0.51 0.23 l-1.56 0 q-0.26 0 -0.46 -0.18 t-0.22 -0.44 q-0.08 -0.52 -0.34 -0.86 q-0.42 -0.5 -1.3 -0.76 q-0.06 0 -0.08 -0.02 l-0.08 0 z M250.22799999999995 17.08 q0.24 0.04 0.4 0.24 t0.16 0.44 l0 1.48 q0 0.32 -0.24 0.54 q-0.2 0.16 -0.46 0.16 l-0.1 0 q-1.86 -0.28 -3.06 -1.22 q-1.56 -1.24 -1.76 -3.46 q-0.04 -0.32 0.18 -0.55 t0.52 -0.23 l1.58 0 q0.28 0 0.48 0.19 t0.22 0.47 q0.06 1 0.98 1.54 q0.42 0.24 1.1 0.4 z"/>
  </g>
</svg>